<svg width="206" height="79" viewBox="0 0 206 79" fill="none" xmlns="http://www.w3.org/2000/svg">
<path d="M146.536 16.2917H140.295L138.894 20.1793H136.868L142.556 5.28342H144.275L149.974 20.1793H147.958L146.536 16.2917ZM140.889 14.6752H145.953L143.416 7.7081L140.889 14.6752ZM154.086 20.1793H152.122V5.28342H154.086V20.1793ZM163.151 14.1534H159.652V20.1793H157.677V5.28342H162.608C164.286 5.28342 165.575 5.66536 166.476 6.42926C167.383 7.19315 167.836 8.30489 167.836 9.76447C167.836 10.692 167.584 11.5003 167.079 12.1891C166.581 12.878 165.886 13.393 164.992 13.734L168.491 20.0566V20.1793H166.384L163.151 14.1534ZM159.652 12.5472H162.67C163.645 12.5472 164.419 12.2949 164.992 11.7901C165.572 11.2854 165.862 10.6102 165.862 9.76447C165.862 8.8437 165.586 8.13778 165.033 7.64671C164.487 7.15564 163.696 6.90669 162.66 6.89987H159.652V12.5472Z" fill="#A6CE38"/>
<path fill-rule="evenodd" clip-rule="evenodd" d="M136.657 22.2795V29.8287H196.129V22.2795H136.657Z" fill="#00AEEF" stroke="#00AEEF" stroke-width="0.201144"/>
<path fill-rule="evenodd" clip-rule="evenodd" d="M177.931 7.10065V41.291H185.481V7.10065H177.931Z" fill="#00AEEF" stroke="#00AEEF" stroke-width="0.201144"/>
<path d="M142.07 26.1044V28.8258H141.153V21.8744H143.717C144.478 21.8744 145.073 22.0685 145.503 22.4568C145.936 22.8451 146.152 23.3592 146.152 23.9989C146.152 24.6737 145.94 25.1941 145.517 25.5601C145.097 25.923 144.494 26.1044 143.708 26.1044H142.07ZM142.07 25.3548H143.717C144.207 25.3548 144.583 25.2403 144.844 25.0111C145.105 24.7787 145.235 24.4445 145.235 24.0085C145.235 23.5947 145.105 23.2637 144.844 23.0154C144.583 22.7672 144.225 22.6382 143.77 22.6287H142.07V25.3548ZM150.502 27.0115H147.589L146.935 28.8258H145.99L148.644 21.8744H149.446L152.106 28.8258H151.165L150.502 27.0115ZM147.866 26.2572H150.229L149.045 23.0059L147.866 26.2572ZM158.097 26.62C158.012 27.3553 157.739 27.9234 157.281 28.3245C156.826 28.7223 156.22 28.9213 155.462 28.9213C154.641 28.9213 153.982 28.6268 153.485 28.038C152.992 27.4492 152.745 26.6614 152.745 25.6747V25.0063C152.745 24.3602 152.86 23.792 153.089 23.3019C153.322 22.8117 153.649 22.4361 154.073 22.1751C154.496 21.911 154.986 21.7789 155.543 21.7789C156.282 21.7789 156.874 21.9858 157.319 22.3995C157.765 22.8101 158.024 23.3799 158.097 24.1087H157.176C157.096 23.5549 156.923 23.1539 156.656 22.9056C156.391 22.6573 156.021 22.5332 155.543 22.5332C154.958 22.5332 154.498 22.7496 154.163 23.1825C153.832 23.6154 153.667 24.2313 153.667 25.0302V25.7034C153.667 26.4577 153.824 27.0577 154.14 27.5033C154.455 27.9489 154.896 28.1717 155.462 28.1717C155.971 28.1717 156.361 28.0571 156.632 27.8279C156.906 27.5956 157.087 27.193 157.176 26.62H158.097ZM161.12 25.5936L160.27 26.4768V28.8258H159.353V21.8744H160.27V25.3119L163.359 21.8744H164.466L161.731 24.9442L164.681 28.8258H163.583L161.12 25.5936Z" fill="white"/>
<path d="M138.921 33.8095C138.472 33.6804 138.145 33.5221 137.939 33.3348C137.735 33.1456 137.634 32.9128 137.634 32.6364C137.634 32.3235 137.758 32.0653 138.007 31.8616C138.258 31.656 138.584 31.5533 138.984 31.5533C139.257 31.5533 139.5 31.606 139.712 31.7115C139.927 31.817 140.093 31.9625 140.209 32.148C140.327 32.3335 140.386 32.5363 140.386 32.7564H139.86C139.86 32.5163 139.783 32.3281 139.631 32.1917C139.478 32.0534 139.262 31.9843 138.984 31.9843C138.726 31.9843 138.524 32.0416 138.378 32.1562C138.235 32.269 138.163 32.4263 138.163 32.6282C138.163 32.7901 138.231 32.9274 138.367 33.0401C138.506 33.1511 138.739 33.2529 139.069 33.3457C139.4 33.4385 139.658 33.5412 139.843 33.654C140.031 33.7649 140.169 33.895 140.258 34.0441C140.349 34.1932 140.394 34.3688 140.394 34.5706C140.394 34.8926 140.269 35.1508 140.018 35.3455C139.767 35.5382 139.431 35.6346 139.011 35.6346C138.738 35.6346 138.484 35.5828 138.247 35.4791C138.011 35.3736 137.828 35.23 137.699 35.0481C137.572 34.8662 137.508 34.6598 137.508 34.4288H138.035C138.035 34.6689 138.123 34.8589 138.299 34.999C138.477 35.1372 138.715 35.2063 139.011 35.2063C139.288 35.2063 139.5 35.1499 139.647 35.0372C139.794 34.9244 139.868 34.7707 139.868 34.5761C139.868 34.3815 139.8 34.2314 139.663 34.126C139.527 34.0186 139.28 33.9132 138.921 33.8095ZM142.812 35.5801C142.783 35.5219 142.759 35.4182 142.741 35.2691C142.506 35.5128 142.226 35.6346 141.9 35.6346C141.609 35.6346 141.37 35.5528 141.183 35.3891C140.997 35.2236 140.905 35.0144 140.905 34.7616C140.905 34.4542 141.021 34.216 141.254 34.0468C141.488 33.8759 141.818 33.7904 142.241 33.7904H142.733V33.5585C142.733 33.3821 142.68 33.242 142.574 33.1384C142.469 33.0329 142.313 32.9801 142.108 32.9801C141.928 32.9801 141.777 33.0256 141.655 33.1165C141.533 33.2075 141.472 33.3175 141.472 33.4466H140.965C140.965 33.2993 141.017 33.1574 141.12 33.021C141.226 32.8828 141.368 32.7737 141.546 32.6937C141.726 32.6136 141.923 32.5736 142.138 32.5736C142.478 32.5736 142.744 32.6591 142.937 32.8301C143.13 32.9992 143.23 33.2329 143.237 33.5312V34.8898C143.237 35.1608 143.272 35.3764 143.341 35.5364V35.5801H142.812ZM141.974 35.1954C142.132 35.1954 142.282 35.1545 142.424 35.0726C142.566 34.9908 142.669 34.8844 142.733 34.7534V34.1478H142.337C141.719 34.1478 141.409 34.3287 141.409 34.6907C141.409 34.8489 141.462 34.9726 141.568 35.0617C141.673 35.1508 141.809 35.1954 141.974 35.1954ZM144.277 35.5801V33.0183H143.81V32.6282H144.277V32.3254C144.277 32.0089 144.361 31.7643 144.53 31.5915C144.7 31.4187 144.939 31.3323 145.248 31.3323C145.364 31.3323 145.48 31.3478 145.594 31.3787L145.567 31.7879C145.482 31.7715 145.391 31.7633 145.294 31.7633C145.131 31.7633 145.004 31.8115 144.915 31.9079C144.826 32.0025 144.781 32.1389 144.781 32.3172V32.6282H145.412V33.0183H144.781V35.5801H144.277ZM147.13 35.6346C146.73 35.6346 146.405 35.5037 146.154 35.2418C145.903 34.9781 145.777 34.6261 145.777 34.186V34.0932C145.777 33.8004 145.833 33.5394 145.944 33.3102C146.056 33.0792 146.213 32.8992 146.413 32.77C146.615 32.6391 146.833 32.5736 147.068 32.5736C147.451 32.5736 147.75 32.7 147.962 32.9528C148.175 33.2056 148.282 33.5676 148.282 34.0387V34.2487H146.282C146.289 34.5397 146.374 34.7753 146.536 34.9553C146.699 35.1336 146.907 35.2227 147.158 35.2227C147.336 35.2227 147.487 35.1863 147.611 35.1136C147.734 35.0408 147.842 34.9444 147.935 34.8244L148.243 35.0645C147.996 35.4446 147.625 35.6346 147.13 35.6346ZM147.068 32.9883C146.864 32.9883 146.693 33.0629 146.555 33.212C146.417 33.3593 146.331 33.5667 146.298 33.834H147.777V33.7958C147.762 33.5394 147.693 33.3411 147.57 33.2011C147.446 33.0592 147.279 32.9883 147.068 32.9883ZM149.553 31.9134V32.6282H150.104V33.0183H149.553V34.8489C149.553 34.9671 149.578 35.0563 149.627 35.1163C149.676 35.1745 149.759 35.2036 149.878 35.2036C149.936 35.2036 150.016 35.1927 150.118 35.1709V35.5801C149.985 35.6165 149.856 35.6346 149.73 35.6346C149.505 35.6346 149.335 35.5664 149.22 35.43C149.106 35.2936 149.048 35.0999 149.048 34.8489V33.0183H148.511V32.6282H149.048V31.9134H149.553ZM151.662 34.8407L152.349 32.6282H152.89L151.703 36.0357C151.519 36.5268 151.227 36.7723 150.827 36.7723L150.732 36.7641L150.543 36.7286V36.3194L150.68 36.3303C150.851 36.3303 150.983 36.2958 151.078 36.2267C151.174 36.1575 151.254 36.0311 151.315 35.8474L151.427 35.5473L150.374 32.6282H150.925L151.662 34.8407ZM155.978 33.8095C155.529 33.6804 155.201 33.5221 154.996 33.3348C154.792 33.1456 154.69 32.9128 154.69 32.6364C154.69 32.3235 154.815 32.0653 155.064 31.8616C155.315 31.656 155.641 31.5533 156.041 31.5533C156.313 31.5533 156.556 31.606 156.769 31.7115C156.984 31.817 157.149 31.9625 157.266 32.148C157.384 32.3335 157.443 32.5363 157.443 32.7564H156.916C156.916 32.5163 156.84 32.3281 156.687 32.1917C156.534 32.0534 156.319 31.9843 156.041 31.9843C155.782 31.9843 155.58 32.0416 155.435 32.1562C155.291 32.269 155.219 32.4263 155.219 32.6282C155.219 32.7901 155.288 32.9274 155.424 33.0401C155.562 33.1511 155.796 33.2529 156.125 33.3457C156.456 33.4385 156.715 33.5412 156.9 33.654C157.087 33.7649 157.226 33.895 157.315 34.0441C157.406 34.1932 157.451 34.3688 157.451 34.5706C157.451 34.8926 157.326 35.1508 157.075 35.3455C156.824 35.5382 156.488 35.6346 156.068 35.6346C155.795 35.6346 155.54 35.5828 155.304 35.4791C155.068 35.3736 154.885 35.23 154.756 35.0481C154.628 34.8662 154.565 34.6598 154.565 34.4288H155.091C155.091 34.6689 155.179 34.8589 155.356 34.999C155.534 35.1372 155.771 35.2063 156.068 35.2063C156.344 35.2063 156.556 35.1499 156.704 35.0372C156.851 34.9244 156.925 34.7707 156.925 34.5761C156.925 34.3815 156.856 34.2314 156.72 34.126C156.584 34.0186 156.336 33.9132 155.978 33.8095ZM157.912 34.0768C157.912 33.7877 157.969 33.5276 158.081 33.2966C158.196 33.0656 158.354 32.8874 158.556 32.7619C158.76 32.6364 158.992 32.5736 159.252 32.5736C159.654 32.5736 159.978 32.7128 160.226 32.991C160.475 33.2693 160.599 33.6394 160.599 34.1014V34.1369C160.599 34.4242 160.544 34.6825 160.433 34.9117C160.324 35.139 160.167 35.3164 159.961 35.4437C159.757 35.571 159.523 35.6346 159.257 35.6346C158.857 35.6346 158.532 35.4955 158.283 35.2172C158.036 34.939 157.912 34.5706 157.912 34.1123V34.0768ZM158.42 34.1369C158.42 34.4642 158.495 34.7271 158.646 34.9253C158.799 35.1236 159.003 35.2227 159.257 35.2227C159.514 35.2227 159.717 35.1227 159.868 34.9226C160.019 34.7207 160.095 34.4388 160.095 34.0768C160.095 33.7531 160.017 33.4912 159.863 33.2911C159.71 33.0892 159.506 32.9883 159.252 32.9883C159.003 32.9883 158.802 33.0874 158.649 33.2857C158.496 33.4839 158.42 33.7677 158.42 34.1369ZM161.781 35.5801H161.276V31.3896H161.781V35.5801ZM164.413 35.2882C164.217 35.5191 163.929 35.6346 163.549 35.6346C163.234 35.6346 162.994 35.5437 162.828 35.3618C162.665 35.1781 162.582 34.9071 162.58 34.5488V32.6282H163.085V34.5352C163.085 34.9826 163.267 35.2063 163.63 35.2063C164.016 35.2063 164.272 35.0626 164.4 34.7753V32.6282H164.905V35.5801H164.424L164.413 35.2882ZM166.359 31.9134V32.6282H166.91V33.0183H166.359V34.8489C166.359 34.9671 166.383 35.0563 166.432 35.1163C166.481 35.1745 166.565 35.2036 166.683 35.2036C166.742 35.2036 166.822 35.1927 166.923 35.1709V35.5801C166.791 35.6165 166.661 35.6346 166.536 35.6346C166.31 35.6346 166.14 35.5664 166.026 35.43C165.911 35.2936 165.854 35.0999 165.854 34.8489V33.0183H165.316V32.6282H165.854V31.9134H166.359ZM168.05 35.5801H167.545V32.6282H168.05V35.5801ZM167.504 31.8452C167.504 31.7633 167.529 31.6942 167.578 31.6378C167.629 31.5815 167.704 31.5533 167.802 31.5533C167.9 31.5533 167.975 31.5815 168.026 31.6378C168.076 31.6942 168.102 31.7633 168.102 31.8452C168.102 31.927 168.076 31.9952 168.026 32.0498C167.975 32.1044 167.9 32.1316 167.802 32.1316C167.704 32.1316 167.629 32.1044 167.578 32.0498C167.529 31.9952 167.504 31.927 167.504 31.8452ZM168.727 34.0768C168.727 33.7877 168.783 33.5276 168.896 33.2966C169.01 33.0656 169.169 32.8874 169.371 32.7619C169.574 32.6364 169.806 32.5736 170.066 32.5736C170.468 32.5736 170.793 32.7128 171.04 32.991C171.289 33.2693 171.414 33.6394 171.414 34.1014V34.1369C171.414 34.4242 171.359 34.6825 171.248 34.9117C171.138 35.139 170.981 35.3164 170.776 35.4437C170.572 35.571 170.337 35.6346 170.072 35.6346C169.672 35.6346 169.347 35.4955 169.098 35.2172C168.85 34.939 168.727 34.5706 168.727 34.1123V34.0768ZM169.234 34.1369C169.234 34.4642 169.31 34.7271 169.461 34.9253C169.613 35.1236 169.817 35.2227 170.072 35.2227C170.328 35.2227 170.532 35.1227 170.683 34.9226C170.834 34.7207 170.909 34.4388 170.909 34.0768C170.909 33.7531 170.832 33.4912 170.677 33.2911C170.525 33.0892 170.321 32.9883 170.066 32.9883C169.817 32.9883 169.616 33.0874 169.463 33.2857C169.311 33.4839 169.234 33.7677 169.234 34.1369ZM172.524 32.6282L172.541 32.9992C172.766 32.7155 173.061 32.5736 173.425 32.5736C174.048 32.5736 174.363 32.9256 174.369 33.6294V35.5801H173.864V33.6267C173.862 33.4139 173.813 33.2566 173.717 33.1547C173.622 33.0529 173.474 33.0019 173.272 33.0019C173.108 33.0019 172.964 33.0456 172.841 33.1329C172.717 33.2202 172.621 33.3348 172.552 33.4766V35.5801H172.047V32.6282H172.524Z" fill="#ED1C24"/>
<path d="M13.2466 55.4545H5.06435L3.22669 60.5517H0.570801L8.02876 41.0215H10.2822L17.7536 60.5517H15.1111L13.2466 55.4545ZM5.84234 53.3352H12.4821L9.1555 44.2005L5.84234 53.3352ZM23.1459 60.5517H20.5705V41.0215H23.1459V60.5517ZM35.0303 52.6511H30.4429V60.5517H27.854V41.0215H34.3194C36.5192 41.0215 38.2093 41.5223 39.3897 42.5238C40.5791 43.5254 41.1737 44.983 41.1737 46.8966C41.1737 48.1128 40.8429 49.1725 40.1811 50.0757C39.5283 50.9788 38.6162 51.654 37.4448 52.1011L42.0322 60.3907V60.5517H39.269L35.0303 52.6511ZM30.4429 50.5451H34.3999C35.6786 50.5451 36.6936 50.2143 37.4448 49.5525C38.2049 48.8908 38.5849 48.0055 38.5849 46.8966C38.5849 45.6894 38.2227 44.7639 37.4984 44.12C36.783 43.4762 35.7457 43.1498 34.3865 43.1408H30.4429V50.5451ZM54.1849 52.9059V60.5517H51.6095V41.0215H58.8126C60.9498 41.0215 62.6221 41.567 63.8293 42.6579C65.0454 43.7489 65.6535 45.1931 65.6535 46.9905C65.6535 48.8863 65.0589 50.3484 63.8695 51.3768C62.6891 52.3962 60.9945 52.9059 58.7858 52.9059H54.1849ZM54.1849 50.8H58.8126C60.1897 50.8 61.2449 50.4781 61.9782 49.8342C62.7115 49.1814 63.0781 48.2425 63.0781 47.0174C63.0781 45.8548 62.7115 44.9248 61.9782 44.2273C61.2449 43.5298 60.2389 43.1677 58.9601 43.1408H54.1849V50.8ZM77.8733 55.4545H69.691L67.8534 60.5517H65.1975L72.6554 41.0215H74.9089L82.3803 60.5517H79.7378L77.8733 55.4545ZM70.469 53.3352H77.1087L73.7822 44.2005L70.469 53.3352ZM99.2143 54.3546C98.9729 56.4203 98.2083 58.0165 96.9206 59.1432C95.6418 60.261 93.9383 60.8199 91.81 60.8199C89.5029 60.8199 87.6518 59.9928 86.2568 58.3384C84.8707 56.6841 84.1777 54.4708 84.1777 51.6987V49.8208C84.1777 48.0055 84.4996 46.4093 85.1435 45.0321C85.7963 43.655 86.7173 42.5998 87.9067 41.8665C89.096 41.1243 90.4731 40.7532 92.0381 40.7532C94.1127 40.7532 95.776 41.3345 97.0279 42.497C98.2798 43.6505 99.0086 45.2512 99.2143 47.299H96.6255C96.4019 45.7431 95.9146 44.6163 95.1634 43.9188C94.4212 43.2213 93.3794 42.8726 92.0381 42.8726C90.3927 42.8726 89.1005 43.4806 88.1615 44.6968C87.2315 45.913 86.7665 47.6433 86.7665 49.8879V51.7792C86.7665 53.8985 87.2092 55.5842 88.0945 56.8361C88.9798 58.088 90.2183 58.714 91.81 58.714C93.2408 58.714 94.3362 58.3921 95.0964 57.7482C95.8654 57.0954 96.3751 55.9642 96.6255 54.3546H99.2143ZM107.705 51.4707L105.318 53.9522V60.5517H102.742V41.0215H105.318V50.6793L113.996 41.0215H117.108L109.422 49.6464L117.712 60.5517H114.627L107.705 51.4707Z" fill="#A6CE38"/>
<path d="M129.355 52.9059V60.5517H126.779V41.0215H133.982C136.12 41.0215 137.792 41.567 138.999 42.6579C140.215 43.7489 140.823 45.1931 140.823 46.9905C140.823 48.8863 140.229 50.3484 139.039 51.3768C137.859 52.3962 136.164 52.9059 133.956 52.9059H129.355ZM129.355 50.8H133.982C135.359 50.8 136.415 50.4781 137.148 49.8342C137.881 49.1814 138.248 48.2425 138.248 47.0174C138.248 45.8548 137.881 44.9248 137.148 44.2273C136.415 43.5298 135.409 43.1677 134.13 43.1408H129.355V50.8ZM146.698 58.4457H155.954V60.5517H144.11V41.0215H146.698V58.4457ZM171.916 41.0215V54.3009C171.907 56.1431 171.326 57.6499 170.172 58.8213C169.028 59.9928 167.472 60.65 165.504 60.7931L164.82 60.8199C162.683 60.8199 160.979 60.2432 159.71 59.0896C158.44 57.936 157.796 56.3487 157.778 54.3278V41.0215H160.327V54.2473C160.327 55.6602 160.716 56.7601 161.494 57.547C162.272 58.325 163.38 58.714 164.82 58.714C166.278 58.714 167.391 58.325 168.16 57.547C168.938 56.769 169.327 55.6736 169.327 54.2607V41.0215H171.916ZM181.735 51.8462C179.526 51.2113 177.916 50.4334 176.906 49.5123C175.904 48.5823 175.404 47.4376 175.404 46.0784C175.404 44.5403 176.016 43.2705 177.241 42.2689C178.475 41.2585 180.076 40.7532 182.043 40.7532C183.385 40.7532 184.578 41.0125 185.625 41.5312C186.68 42.0499 187.494 42.7652 188.066 43.6774C188.647 44.5895 188.938 45.5866 188.938 46.6686H186.349C186.349 45.4882 185.973 44.5627 185.222 43.892C184.471 43.2124 183.411 42.8726 182.043 42.8726C180.773 42.8726 179.781 43.1542 179.065 43.7176C178.359 44.272 178.006 45.0456 178.006 46.0382C178.006 46.834 178.341 47.5092 179.012 48.0636C179.691 48.6091 180.84 49.1099 182.459 49.5659C184.087 50.022 185.356 50.5272 186.269 51.0817C187.19 51.6272 187.869 52.2665 188.307 52.9998C188.754 53.7331 188.978 54.596 188.978 55.5886C188.978 57.1714 188.361 58.4413 187.127 59.3981C185.893 60.346 184.243 60.8199 182.177 60.8199C180.836 60.8199 179.584 60.5651 178.422 60.0554C177.259 59.5367 176.36 58.8303 175.725 57.936C175.099 57.0418 174.786 56.0268 174.786 54.8911H177.375C177.375 56.0715 177.809 57.006 178.676 57.6946C179.553 58.3742 180.72 58.714 182.177 58.714C183.537 58.714 184.578 58.4368 185.303 57.8824C186.027 57.3279 186.389 56.5723 186.389 55.6155C186.389 54.6586 186.054 53.9209 185.383 53.4022C184.713 52.8746 183.496 52.356 181.735 51.8462Z" fill="#ED1C24"/>
<path fill-rule="evenodd" clip-rule="evenodd" d="M0.21582 62.7942V65.6331H205.55V62.8873L0.21582 62.7942Z" fill="#00AEEF"/>
<path fill-rule="evenodd" clip-rule="evenodd" d="M51.5424 70.8027V74.4288H55.8937V70.8027H51.5424Z" fill="#ED1C24"/>
<path fill-rule="evenodd" clip-rule="evenodd" d="M56.7024 69.7378V74.4288H61.0604V69.7378H56.7024Z" fill="#ED1C24"/>
<path fill-rule="evenodd" clip-rule="evenodd" d="M61.8532 68.8315V74.4288H66.2114V68.8315H61.8532Z" fill="#ED1C24"/>
<path d="M75.772 73.8899L75.912 74.8502L76.1171 73.9849L77.5576 68.9032H78.3679L79.7733 73.9849L79.9734 74.8652L80.1284 73.8849L81.2588 68.9032H82.2241L80.4586 76.1857H79.5833L78.0828 70.8789L77.9677 70.3237L77.8527 70.8789L76.2972 76.1857H75.4219L73.6613 68.9032H74.6216L75.772 73.8899ZM84.0748 71.4291C84.4849 70.9256 85.0184 70.6738 85.6753 70.6738C86.819 70.6738 87.3959 71.3191 87.4059 72.6095V76.1857H86.4806V72.6045C86.4772 72.2144 86.3872 71.9259 86.2105 71.7392C86.0371 71.5525 85.7653 71.4591 85.3952 71.4591C85.0951 71.4591 84.8317 71.5391 84.6049 71.6992C84.3782 71.8592 84.2015 72.0693 84.0748 72.3294V76.1857H83.1495V68.5031H84.0748V71.4291ZM91.0371 76.2857C90.3035 76.2857 89.7067 76.0456 89.2465 75.5655C88.7863 75.082 88.5563 74.4368 88.5563 73.6298V73.4598C88.5563 72.9229 88.658 72.4444 88.8614 72.0243C89.0681 71.6008 89.3549 71.2707 89.7217 71.034C90.0918 70.7939 90.4919 70.6738 90.9221 70.6738C91.6256 70.6738 92.1725 70.9056 92.5626 71.3691C92.9527 71.8326 93.1478 72.4961 93.1478 73.3597V73.7449H89.4816C89.4949 74.2784 89.65 74.7102 89.9467 75.0403C90.2468 75.3671 90.627 75.5305 91.0871 75.5305C91.4139 75.5305 91.6907 75.4638 91.9174 75.3304C92.1441 75.197 92.3425 75.0203 92.5126 74.8002L93.0778 75.2404C92.6243 75.9373 91.9441 76.2857 91.0371 76.2857ZM90.9221 71.4341C90.5486 71.4341 90.2352 71.5708 89.9817 71.8442C89.7283 72.1143 89.5716 72.4944 89.5116 72.9846H92.2225V72.9146C92.1958 72.4444 92.0691 72.081 91.8424 71.8242C91.6156 71.5641 91.3089 71.4341 90.9221 71.4341ZM96.839 71.6041C96.699 71.5808 96.5473 71.5691 96.3839 71.5691C95.777 71.5691 95.3652 71.8276 95.1485 72.3444V76.1857H94.2232V70.7739H95.1235L95.1385 71.3991C95.4419 70.9156 95.8721 70.6738 96.4289 70.6738C96.609 70.6738 96.7457 70.6972 96.839 70.7439V71.6041ZM99.84 76.2857C99.1065 76.2857 98.5096 76.0456 98.0494 75.5655C97.5893 75.082 97.3592 74.4368 97.3592 73.6298V73.4598C97.3592 72.9229 97.4609 72.4444 97.6643 72.0243C97.8711 71.6008 98.1578 71.2707 98.5246 71.034C98.8947 70.7939 99.2949 70.6738 99.725 70.6738C100.429 70.6738 100.975 70.9056 101.366 71.3691C101.756 71.8326 101.951 72.4961 101.951 73.3597V73.7449H98.2845C98.2979 74.2784 98.4529 74.7102 98.7497 75.0403C99.0498 75.3671 99.4299 75.5305 99.8901 75.5305C100.217 75.5305 100.494 75.4638 100.72 75.3304C100.947 75.197 101.145 75.0203 101.316 74.8002L101.881 75.2404C101.427 75.9373 100.747 76.2857 99.84 76.2857ZM99.725 71.4341C99.3516 71.4341 99.0381 71.5708 98.7847 71.8442C98.5313 72.1143 98.3746 72.4944 98.3145 72.9846H101.025V72.9146C100.999 72.4444 100.872 72.081 100.645 71.8242C100.419 71.5641 100.112 71.4341 99.725 71.4341ZM106.672 73.3347V76.1857H105.712V68.9032H108.398C109.195 68.9032 109.818 69.1066 110.269 69.5134C110.722 69.9203 110.949 70.4588 110.949 71.129C110.949 71.8359 110.727 72.3811 110.284 72.7645C109.843 73.1447 109.212 73.3347 108.388 73.3347H106.672ZM106.672 72.5495H108.398C108.911 72.5495 109.305 72.4294 109.578 72.1893C109.852 71.9459 109.988 71.5958 109.988 71.139C109.988 70.7055 109.852 70.3587 109.578 70.0986C109.305 69.8386 108.93 69.7035 108.453 69.6935H106.672V72.5495ZM115.31 76.1857C115.257 76.079 115.214 75.8889 115.18 75.6155C114.75 76.0623 114.237 76.2857 113.64 76.2857C113.106 76.2857 112.668 76.1357 112.324 75.8356C111.984 75.5321 111.814 75.1487 111.814 74.6852C111.814 74.1217 112.027 73.6848 112.454 73.3747C112.884 73.0613 113.488 72.9046 114.265 72.9046H115.165V72.4794C115.165 72.156 115.068 71.8992 114.875 71.7092C114.682 71.5158 114.397 71.4191 114.02 71.4191C113.69 71.4191 113.413 71.5024 113.19 71.6692C112.966 71.8359 112.854 72.0376 112.854 72.2744H111.924C111.924 72.0043 112.019 71.7442 112.209 71.4941C112.403 71.2407 112.663 71.0406 112.989 70.8939C113.32 70.7472 113.681 70.6738 114.075 70.6738C114.698 70.6738 115.187 70.8306 115.54 71.144C115.894 71.4541 116.077 71.8826 116.09 72.4294V74.9203C116.09 75.4171 116.154 75.8122 116.281 76.1057V76.1857H115.31ZM113.775 75.4804C114.065 75.4804 114.34 75.4054 114.6 75.2554C114.86 75.1053 115.048 74.9103 115.165 74.6702V73.5598H114.44C113.306 73.5598 112.739 73.8916 112.739 74.5551C112.739 74.8452 112.836 75.072 113.029 75.2354C113.223 75.3988 113.471 75.4804 113.775 75.4804ZM119.712 75.5305C120.042 75.5305 120.33 75.4304 120.577 75.2304C120.824 75.0303 120.96 74.7802 120.987 74.4801H121.862C121.846 74.7902 121.739 75.0853 121.542 75.3654C121.346 75.6455 121.082 75.8689 120.752 76.0356C120.425 76.2024 120.078 76.2857 119.712 76.2857C118.975 76.2857 118.388 76.0406 117.951 75.5505C117.518 75.057 117.301 74.3834 117.301 73.5298V73.3747C117.301 72.8479 117.398 72.3794 117.591 71.9693C117.784 71.5591 118.061 71.2407 118.421 71.014C118.785 70.7872 119.213 70.6738 119.707 70.6738C120.314 70.6738 120.817 70.8556 121.217 71.219C121.621 71.5825 121.836 72.0543 121.862 72.6345H120.987C120.96 72.2844 120.827 71.9976 120.587 71.7742C120.35 71.5475 120.057 71.4341 119.707 71.4341C119.237 71.4341 118.871 71.6041 118.611 71.9443C118.355 72.281 118.226 72.7695 118.226 73.4098V73.5848C118.226 74.2084 118.355 74.6885 118.611 75.0253C118.868 75.3621 119.235 75.5305 119.712 75.5305ZM124.413 73.6798L123.833 74.285V76.1857H122.908V68.5031H123.833V73.1497L124.328 72.5545L126.014 70.7739H127.139L125.033 73.0346L127.384 76.1857H126.299L124.413 73.6798ZM129.1 76.1857H128.175V70.7739H129.1V76.1857ZM128.1 69.3384C128.1 69.1883 128.145 69.0616 128.235 68.9583C128.328 68.8549 128.465 68.8032 128.645 68.8032C128.825 68.8032 128.961 68.8549 129.055 68.9583C129.148 69.0616 129.195 69.1883 129.195 69.3384C129.195 69.4884 129.148 69.6135 129.055 69.7135C128.961 69.8135 128.825 69.8636 128.645 69.8636C128.465 69.8636 128.328 69.8135 128.235 69.7135C128.145 69.6135 128.1 69.4884 128.1 69.3384ZM131.461 70.7739L131.491 71.4541C131.904 70.9339 132.444 70.6738 133.111 70.6738C134.255 70.6738 134.832 71.3191 134.842 72.6095V76.1857H133.916V72.6045C133.913 72.2144 133.823 71.9259 133.646 71.7392C133.473 71.5525 133.201 71.4591 132.831 71.4591C132.531 71.4591 132.268 71.5391 132.041 71.6992C131.814 71.8592 131.637 72.0693 131.511 72.3294V76.1857H130.585V70.7739H131.461ZM136.017 73.4348C136.017 72.5911 136.212 71.9209 136.602 71.4241C136.993 70.9239 137.509 70.6738 138.153 70.6738C138.813 70.6738 139.328 70.9072 139.698 71.3741L139.743 70.7739H140.589V76.0556C140.589 76.7559 140.38 77.3077 139.963 77.7112C139.55 78.1147 138.993 78.3164 138.293 78.3164C137.903 78.3164 137.521 78.233 137.148 78.0663C136.774 77.8996 136.489 77.6712 136.292 77.3811L136.772 76.8259C137.169 77.3161 137.654 77.5611 138.228 77.5611C138.678 77.5611 139.028 77.4344 139.278 77.181C139.532 76.9276 139.658 76.5708 139.658 76.1107V75.6455C139.288 76.0723 138.783 76.2857 138.143 76.2857C137.509 76.2857 136.996 76.0306 136.602 75.5205C136.212 75.0103 136.017 74.3151 136.017 73.4348ZM136.947 73.5398C136.947 74.15 137.073 74.6302 137.323 74.9803C137.573 75.3271 137.923 75.5005 138.373 75.5005C138.956 75.5005 139.385 75.2354 139.658 74.7052V72.2344C139.375 71.7175 138.95 71.4591 138.383 71.4591C137.933 71.4591 137.581 71.6342 137.328 71.9843C137.074 72.3344 136.947 72.8529 136.947 73.5398ZM145.915 68.9032L148.296 74.8452L150.677 68.9032H151.923V76.1857H150.962V73.3497L151.052 70.2887L148.661 76.1857H147.926L145.54 70.3037L145.635 73.3497V76.1857H144.675V68.9032H145.915ZM153.228 73.4298C153.228 72.8996 153.331 72.4228 153.538 71.9993C153.748 71.5758 154.038 71.249 154.408 71.019C154.782 70.7889 155.207 70.6738 155.684 70.6738C156.421 70.6738 157.016 70.9289 157.469 71.4391C157.926 71.9493 158.155 72.6278 158.155 73.4748V73.5398C158.155 74.0666 158.053 74.5401 157.849 74.9603C157.649 75.3771 157.361 75.7022 156.984 75.9356C156.611 76.169 156.181 76.2857 155.694 76.2857C154.96 76.2857 154.365 76.0306 153.908 75.5205C153.455 75.0103 153.228 74.3351 153.228 73.4948V73.4298ZM154.158 73.5398C154.158 74.14 154.297 74.6218 154.573 74.9853C154.853 75.3487 155.227 75.5305 155.694 75.5305C156.164 75.5305 156.537 75.3471 156.814 74.9803C157.091 74.6102 157.229 74.0933 157.229 73.4298C157.229 72.8362 157.088 72.3561 156.804 71.9893C156.524 71.6192 156.151 71.4341 155.684 71.4341C155.227 71.4341 154.858 71.6158 154.578 71.9793C154.298 72.3427 154.158 72.8629 154.158 73.5398ZM161.021 74.9303L162.361 70.7739H163.306L161.366 76.1857H160.66L158.7 70.7739H159.645L161.021 74.9303ZM166.372 76.2857C165.639 76.2857 165.042 76.0456 164.582 75.5655C164.122 75.082 163.892 74.4368 163.892 73.6298V73.4598C163.892 72.9229 163.993 72.4444 164.197 72.0243C164.403 71.6008 164.69 71.2707 165.057 71.034C165.427 70.7939 165.827 70.6738 166.257 70.6738C166.961 70.6738 167.508 70.9056 167.898 71.3691C168.288 71.8326 168.483 72.4961 168.483 73.3597V73.7449H164.817C164.83 74.2784 164.985 74.7102 165.282 75.0403C165.582 75.3671 165.962 75.5305 166.422 75.5305C166.749 75.5305 167.026 75.4638 167.253 75.3304C167.479 75.197 167.678 75.0203 167.848 74.8002L168.413 75.2404C167.96 75.9373 167.279 76.2857 166.372 76.2857ZM166.257 71.4341C165.884 71.4341 165.57 71.5708 165.317 71.8442C165.064 72.1143 164.907 72.4944 164.847 72.9846H167.558V72.9146C167.531 72.4444 167.404 72.081 167.178 71.8242C166.951 71.5641 166.644 71.4341 166.257 71.4341ZM172.709 74.7502C172.709 74.5001 172.614 74.3067 172.424 74.17C172.238 74.03 171.909 73.9099 171.439 73.8099C170.972 73.7099 170.6 73.5898 170.324 73.4498C170.05 73.3097 169.847 73.143 169.713 72.9496C169.583 72.7562 169.518 72.5261 169.518 72.2594C169.518 71.8159 169.705 71.4408 170.079 71.134C170.455 70.8272 170.936 70.6738 171.519 70.6738C172.133 70.6738 172.629 70.8322 173.01 71.149C173.393 71.4658 173.585 71.8709 173.585 72.3644H172.654C172.654 72.111 172.546 71.8926 172.329 71.7092C172.116 71.5258 171.846 71.4341 171.519 71.4341C171.182 71.4341 170.919 71.5074 170.729 71.6542C170.539 71.8009 170.444 71.9926 170.444 72.2294C170.444 72.4528 170.532 72.6212 170.709 72.7345C170.886 72.8479 171.204 72.9563 171.664 73.0596C172.128 73.163 172.503 73.2864 172.79 73.4298C173.076 73.5731 173.288 73.7465 173.425 73.9499C173.565 74.15 173.635 74.3951 173.635 74.6852C173.635 75.1687 173.441 75.5571 173.055 75.8506C172.668 76.1407 172.166 76.2857 171.549 76.2857C171.116 76.2857 170.732 76.209 170.399 76.0556C170.065 75.9023 169.804 75.6889 169.613 75.4154C169.427 75.1387 169.333 74.8402 169.333 74.5201H170.259C170.275 74.8302 170.399 75.077 170.629 75.2604C170.862 75.4404 171.169 75.5305 171.549 75.5305C171.899 75.5305 172.179 75.4604 172.389 75.3204C172.603 75.177 172.709 74.9869 172.709 74.7502ZM174.86 75.7005C174.86 75.5405 174.907 75.4071 175 75.3004C175.097 75.1937 175.24 75.1403 175.43 75.1403C175.62 75.1403 175.764 75.1937 175.861 75.3004C175.961 75.4071 176.011 75.5405 176.011 75.7005C176.011 75.8539 175.961 75.9823 175.861 76.0857C175.764 76.189 175.62 76.2407 175.43 76.2407C175.24 76.2407 175.097 76.189 175 76.0857C174.907 75.9823 174.86 75.8539 174.86 75.7005ZM177.561 75.7005C177.561 75.5405 177.608 75.4071 177.701 75.3004C177.798 75.1937 177.941 75.1403 178.131 75.1403C178.321 75.1403 178.465 75.1937 178.561 75.3004C178.661 75.4071 178.711 75.5405 178.711 75.7005C178.711 75.8539 178.661 75.9823 178.561 76.0857C178.465 76.189 178.321 76.2407 178.131 76.2407C177.941 76.2407 177.798 76.189 177.701 76.0857C177.608 75.9823 177.561 75.8539 177.561 75.7005ZM180.262 75.7005C180.262 75.5405 180.309 75.4071 180.402 75.3004C180.499 75.1937 180.642 75.1403 180.832 75.1403C181.022 75.1403 181.166 75.1937 181.262 75.3004C181.362 75.4071 181.412 75.5405 181.412 75.7005C181.412 75.8539 181.362 75.9823 181.262 76.0857C181.166 76.189 181.022 76.2407 180.832 76.2407C180.642 76.2407 180.499 76.189 180.402 76.0857C180.309 75.9823 180.262 75.8539 180.262 75.7005Z" fill="#A6CE38"/>
<path fill-rule="evenodd" clip-rule="evenodd" d="M67.003 67.5604V74.3706H71.3585V67.5604H67.003Z" fill="#ED1C24"/>
</svg>
